<mxfile host="65bd71144e">
    <diagram id="Se3RWNrzOhXLVitSvyOy" name="Page-1">
        <mxGraphModel dx="797" dy="579" grid="1" gridSize="10" guides="1" tooltips="1" connect="1" arrows="1" fold="1" page="1" pageScale="1" pageWidth="827" pageHeight="1169" math="0" shadow="0">
            <root>
                <mxCell id="0"/>
                <mxCell id="1" parent="0"/>
                <mxCell id="3" value="活动" style="swimlane;" vertex="1" parent="1">
                    <mxGeometry x="89" y="40" width="650" height="570" as="geometry"/>
                </mxCell>
                <mxCell id="6" value="资源分配器" style="swimlane;" vertex="1" parent="3">
                    <mxGeometry x="40" y="60" width="140" height="440" as="geometry"/>
                </mxCell>
                <mxCell id="7" value="分配器A" style="rounded=0;whiteSpace=wrap;html=1;" vertex="1" parent="6">
                    <mxGeometry x="10" y="50" width="120" height="60" as="geometry"/>
                </mxCell>
                <mxCell id="10" value="分配器B" style="rounded=0;whiteSpace=wrap;html=1;" vertex="1" parent="6">
                    <mxGeometry x="10" y="150" width="120" height="60" as="geometry"/>
                </mxCell>
                <mxCell id="11" value="分配器C" style="rounded=0;whiteSpace=wrap;html=1;" vertex="1" parent="6">
                    <mxGeometry x="10" y="250" width="120" height="60" as="geometry"/>
                </mxCell>
                <mxCell id="12" value="分配器D" style="rounded=0;whiteSpace=wrap;html=1;" vertex="1" parent="6">
                    <mxGeometry x="10" y="350" width="120" height="60" as="geometry"/>
                </mxCell>
                <mxCell id="13" value="规则匹配器" style="swimlane;" vertex="1" parent="3">
                    <mxGeometry x="240" y="45" width="140" height="190" as="geometry"/>
                </mxCell>
                <mxCell id="14" value="&lt;span style=&quot;font-weight: 700&quot;&gt;匹配器&lt;/span&gt;A" style="rounded=0;whiteSpace=wrap;html=1;" vertex="1" parent="13">
                    <mxGeometry x="10" y="30" width="120" height="30" as="geometry"/>
                </mxCell>
                <mxCell id="15" value="&lt;span style=&quot;font-weight: 700&quot;&gt;匹配器&lt;/span&gt;B" style="rounded=0;whiteSpace=wrap;html=1;" vertex="1" parent="13">
                    <mxGeometry x="10" y="70" width="120" height="30" as="geometry"/>
                </mxCell>
                <mxCell id="16" value="&lt;span style=&quot;font-weight: 700&quot;&gt;匹配器&lt;/span&gt;C" style="rounded=0;whiteSpace=wrap;html=1;" vertex="1" parent="13">
                    <mxGeometry x="10" y="110" width="120" height="30" as="geometry"/>
                </mxCell>
                <mxCell id="17" value="&lt;span style=&quot;font-weight: 700&quot;&gt;匹配器&lt;/span&gt;D" style="rounded=0;whiteSpace=wrap;html=1;" vertex="1" parent="13">
                    <mxGeometry x="10" y="150" width="120" height="30" as="geometry"/>
                </mxCell>
                <mxCell id="18" style="edgeStyle=none;html=1;exitX=1;exitY=0.5;exitDx=0;exitDy=0;entryX=0;entryY=0.5;entryDx=0;entryDy=0;" edge="1" parent="3" source="7" target="13">
                    <mxGeometry relative="1" as="geometry"/>
                </mxCell>
                <mxCell id="19" value="规则匹配器" style="swimlane;" vertex="1" parent="3">
                    <mxGeometry x="240" y="365" width="140" height="150" as="geometry"/>
                </mxCell>
                <mxCell id="20" value="&lt;span style=&quot;font-weight: 700&quot;&gt;匹配器&lt;/span&gt;A" style="rounded=0;whiteSpace=wrap;html=1;" vertex="1" parent="19">
                    <mxGeometry x="10" y="30" width="120" height="30" as="geometry"/>
                </mxCell>
                <mxCell id="22" value="&lt;span style=&quot;font-weight: 700&quot;&gt;匹配器&lt;/span&gt;C" style="rounded=0;whiteSpace=wrap;html=1;" vertex="1" parent="19">
                    <mxGeometry x="10" y="70" width="120" height="30" as="geometry"/>
                </mxCell>
                <mxCell id="23" value="&lt;span style=&quot;font-weight: 700&quot;&gt;匹配器&lt;/span&gt;D" style="rounded=0;whiteSpace=wrap;html=1;" vertex="1" parent="19">
                    <mxGeometry x="10" y="110" width="120" height="30" as="geometry"/>
                </mxCell>
                <mxCell id="24" style="edgeStyle=none;html=1;exitX=1;exitY=0.5;exitDx=0;exitDy=0;entryX=0;entryY=0.5;entryDx=0;entryDy=0;" edge="1" parent="3" source="12" target="19">
                    <mxGeometry relative="1" as="geometry"/>
                </mxCell>
                <mxCell id="25" value="规则匹配器" style="swimlane;" vertex="1" parent="3">
                    <mxGeometry x="460" y="183.75" width="140" height="115" as="geometry"/>
                </mxCell>
                <mxCell id="27" value="&lt;span style=&quot;font-weight: 700&quot;&gt;匹配器&lt;/span&gt;B" style="rounded=0;whiteSpace=wrap;html=1;" vertex="1" parent="25">
                    <mxGeometry x="10" y="35" width="120" height="30" as="geometry"/>
                </mxCell>
                <mxCell id="28" value="&lt;span style=&quot;font-weight: 700&quot;&gt;匹配器&lt;/span&gt;C" style="rounded=0;whiteSpace=wrap;html=1;" vertex="1" parent="25">
                    <mxGeometry x="10" y="75" width="120" height="30" as="geometry"/>
                </mxCell>
                <mxCell id="30" style="edgeStyle=none;html=1;exitX=1;exitY=0.5;exitDx=0;exitDy=0;entryX=0;entryY=0.5;entryDx=0;entryDy=0;" edge="1" parent="3" source="10" target="25">
                    <mxGeometry relative="1" as="geometry"/>
                </mxCell>
                <mxCell id="31" value="规则匹配器" style="swimlane;" vertex="1" parent="3">
                    <mxGeometry x="460" y="306.25" width="140" height="70" as="geometry"/>
                </mxCell>
                <mxCell id="33" value="&lt;span style=&quot;font-weight: 700&quot;&gt;匹配器&lt;/span&gt;C" style="rounded=0;whiteSpace=wrap;html=1;" vertex="1" parent="31">
                    <mxGeometry x="10" y="30" width="120" height="30" as="geometry"/>
                </mxCell>
                <mxCell id="34" style="edgeStyle=none;html=1;exitX=1;exitY=0.5;exitDx=0;exitDy=0;entryX=0;entryY=0.5;entryDx=0;entryDy=0;" edge="1" parent="3" source="11" target="31">
                    <mxGeometry relative="1" as="geometry"/>
                </mxCell>
                <mxCell id="35" value="活动B" style="swimlane;" vertex="1" parent="1">
                    <mxGeometry x="89" y="660" width="650" height="570" as="geometry"/>
                </mxCell>
                <mxCell id="36" value="资源分配器" style="swimlane;" vertex="1" parent="35">
                    <mxGeometry x="40" y="60" width="140" height="440" as="geometry"/>
                </mxCell>
                <mxCell id="37" value="分配器A" style="rounded=0;whiteSpace=wrap;html=1;" vertex="1" parent="36">
                    <mxGeometry x="10" y="50" width="120" height="60" as="geometry"/>
                </mxCell>
                <mxCell id="38" value="分配器B" style="rounded=0;whiteSpace=wrap;html=1;" vertex="1" parent="36">
                    <mxGeometry x="10" y="150" width="120" height="60" as="geometry"/>
                </mxCell>
                <mxCell id="39" value="分配器C" style="rounded=0;whiteSpace=wrap;html=1;" vertex="1" parent="36">
                    <mxGeometry x="10" y="250" width="120" height="60" as="geometry"/>
                </mxCell>
                <mxCell id="40" value="分配器D" style="rounded=0;whiteSpace=wrap;html=1;" vertex="1" parent="36">
                    <mxGeometry x="10" y="350" width="120" height="60" as="geometry"/>
                </mxCell>
                <mxCell id="41" value="规则匹配器" style="swimlane;" vertex="1" parent="35">
                    <mxGeometry x="240" y="45" width="140" height="190" as="geometry"/>
                </mxCell>
                <mxCell id="42" value="&lt;span style=&quot;font-weight: 700&quot;&gt;匹配器&lt;/span&gt;A" style="rounded=0;whiteSpace=wrap;html=1;" vertex="1" parent="41">
                    <mxGeometry x="10" y="30" width="120" height="30" as="geometry"/>
                </mxCell>
                <mxCell id="43" value="&lt;span style=&quot;font-weight: 700&quot;&gt;匹配器&lt;/span&gt;B" style="rounded=0;whiteSpace=wrap;html=1;" vertex="1" parent="41">
                    <mxGeometry x="10" y="70" width="120" height="30" as="geometry"/>
                </mxCell>
                <mxCell id="44" value="&lt;span style=&quot;font-weight: 700&quot;&gt;匹配器&lt;/span&gt;C" style="rounded=0;whiteSpace=wrap;html=1;" vertex="1" parent="41">
                    <mxGeometry x="10" y="110" width="120" height="30" as="geometry"/>
                </mxCell>
                <mxCell id="45" value="&lt;span style=&quot;font-weight: 700&quot;&gt;匹配器&lt;/span&gt;D" style="rounded=0;whiteSpace=wrap;html=1;" vertex="1" parent="41">
                    <mxGeometry x="10" y="150" width="120" height="30" as="geometry"/>
                </mxCell>
                <mxCell id="46" style="edgeStyle=none;html=1;exitX=1;exitY=0.5;exitDx=0;exitDy=0;entryX=0;entryY=0.5;entryDx=0;entryDy=0;" edge="1" parent="35" source="37" target="41">
                    <mxGeometry relative="1" as="geometry"/>
                </mxCell>
                <mxCell id="47" value="规则匹配器" style="swimlane;" vertex="1" parent="35">
                    <mxGeometry x="240" y="365" width="140" height="150" as="geometry"/>
                </mxCell>
                <mxCell id="48" value="&lt;span style=&quot;font-weight: 700&quot;&gt;匹配器&lt;/span&gt;A" style="rounded=0;whiteSpace=wrap;html=1;" vertex="1" parent="47">
                    <mxGeometry x="10" y="30" width="120" height="30" as="geometry"/>
                </mxCell>
                <mxCell id="49" value="&lt;span style=&quot;font-weight: 700&quot;&gt;匹配器&lt;/span&gt;C" style="rounded=0;whiteSpace=wrap;html=1;" vertex="1" parent="47">
                    <mxGeometry x="10" y="70" width="120" height="30" as="geometry"/>
                </mxCell>
                <mxCell id="50" value="&lt;span style=&quot;font-weight: 700&quot;&gt;匹配器&lt;/span&gt;D" style="rounded=0;whiteSpace=wrap;html=1;" vertex="1" parent="47">
                    <mxGeometry x="10" y="110" width="120" height="30" as="geometry"/>
                </mxCell>
                <mxCell id="51" style="edgeStyle=none;html=1;exitX=1;exitY=0.5;exitDx=0;exitDy=0;entryX=0;entryY=0.5;entryDx=0;entryDy=0;" edge="1" parent="35" source="40" target="47">
                    <mxGeometry relative="1" as="geometry"/>
                </mxCell>
                <mxCell id="52" value="规则匹配器" style="swimlane;" vertex="1" parent="35">
                    <mxGeometry x="460" y="183.75" width="140" height="115" as="geometry"/>
                </mxCell>
                <mxCell id="53" value="&lt;span style=&quot;font-weight: 700&quot;&gt;匹配器&lt;/span&gt;B" style="rounded=0;whiteSpace=wrap;html=1;" vertex="1" parent="52">
                    <mxGeometry x="10" y="35" width="120" height="30" as="geometry"/>
                </mxCell>
                <mxCell id="54" value="&lt;span style=&quot;font-weight: 700&quot;&gt;匹配器&lt;/span&gt;C" style="rounded=0;whiteSpace=wrap;html=1;" vertex="1" parent="52">
                    <mxGeometry x="10" y="75" width="120" height="30" as="geometry"/>
                </mxCell>
                <mxCell id="55" style="edgeStyle=none;html=1;exitX=1;exitY=0.5;exitDx=0;exitDy=0;entryX=0;entryY=0.5;entryDx=0;entryDy=0;" edge="1" parent="35" source="38" target="52">
                    <mxGeometry relative="1" as="geometry"/>
                </mxCell>
                <mxCell id="56" value="规则匹配器" style="swimlane;" vertex="1" parent="35">
                    <mxGeometry x="460" y="306.25" width="140" height="70" as="geometry"/>
                </mxCell>
                <mxCell id="57" value="&lt;span style=&quot;font-weight: 700&quot;&gt;匹配器&lt;/span&gt;C" style="rounded=0;whiteSpace=wrap;html=1;" vertex="1" parent="56">
                    <mxGeometry x="10" y="30" width="120" height="30" as="geometry"/>
                </mxCell>
                <mxCell id="58" style="edgeStyle=none;html=1;exitX=1;exitY=0.5;exitDx=0;exitDy=0;entryX=0;entryY=0.5;entryDx=0;entryDy=0;" edge="1" parent="35" source="39" target="56">
                    <mxGeometry relative="1" as="geometry"/>
                </mxCell>
                <mxCell id="59" value="活动C" style="swimlane;" vertex="1" parent="1">
                    <mxGeometry x="89" y="1280" width="650" height="570" as="geometry"/>
                </mxCell>
                <mxCell id="60" value="资源分配器" style="swimlane;" vertex="1" parent="59">
                    <mxGeometry x="40" y="60" width="140" height="440" as="geometry"/>
                </mxCell>
                <mxCell id="61" value="分配器A" style="rounded=0;whiteSpace=wrap;html=1;" vertex="1" parent="60">
                    <mxGeometry x="10" y="50" width="120" height="60" as="geometry"/>
                </mxCell>
                <mxCell id="62" value="分配器B" style="rounded=0;whiteSpace=wrap;html=1;" vertex="1" parent="60">
                    <mxGeometry x="10" y="150" width="120" height="60" as="geometry"/>
                </mxCell>
                <mxCell id="63" value="分配器C" style="rounded=0;whiteSpace=wrap;html=1;" vertex="1" parent="60">
                    <mxGeometry x="10" y="250" width="120" height="60" as="geometry"/>
                </mxCell>
                <mxCell id="64" value="分配器D" style="rounded=0;whiteSpace=wrap;html=1;" vertex="1" parent="60">
                    <mxGeometry x="10" y="350" width="120" height="60" as="geometry"/>
                </mxCell>
                <mxCell id="65" value="规则匹配器" style="swimlane;" vertex="1" parent="59">
                    <mxGeometry x="240" y="45" width="140" height="190" as="geometry"/>
                </mxCell>
                <mxCell id="66" value="&lt;span style=&quot;font-weight: 700&quot;&gt;匹配器&lt;/span&gt;A" style="rounded=0;whiteSpace=wrap;html=1;" vertex="1" parent="65">
                    <mxGeometry x="10" y="30" width="120" height="30" as="geometry"/>
                </mxCell>
                <mxCell id="67" value="&lt;span style=&quot;font-weight: 700&quot;&gt;匹配器&lt;/span&gt;B" style="rounded=0;whiteSpace=wrap;html=1;" vertex="1" parent="65">
                    <mxGeometry x="10" y="70" width="120" height="30" as="geometry"/>
                </mxCell>
                <mxCell id="68" value="&lt;span style=&quot;font-weight: 700&quot;&gt;匹配器&lt;/span&gt;C" style="rounded=0;whiteSpace=wrap;html=1;" vertex="1" parent="65">
                    <mxGeometry x="10" y="110" width="120" height="30" as="geometry"/>
                </mxCell>
                <mxCell id="69" value="&lt;span style=&quot;font-weight: 700&quot;&gt;匹配器&lt;/span&gt;D" style="rounded=0;whiteSpace=wrap;html=1;" vertex="1" parent="65">
                    <mxGeometry x="10" y="150" width="120" height="30" as="geometry"/>
                </mxCell>
                <mxCell id="70" style="edgeStyle=none;html=1;exitX=1;exitY=0.5;exitDx=0;exitDy=0;entryX=0;entryY=0.5;entryDx=0;entryDy=0;" edge="1" parent="59" source="61" target="65">
                    <mxGeometry relative="1" as="geometry"/>
                </mxCell>
                <mxCell id="71" value="规则匹配器" style="swimlane;" vertex="1" parent="59">
                    <mxGeometry x="240" y="365" width="140" height="150" as="geometry"/>
                </mxCell>
                <mxCell id="72" value="&lt;span style=&quot;font-weight: 700&quot;&gt;匹配器&lt;/span&gt;A" style="rounded=0;whiteSpace=wrap;html=1;" vertex="1" parent="71">
                    <mxGeometry x="10" y="30" width="120" height="30" as="geometry"/>
                </mxCell>
                <mxCell id="73" value="&lt;span style=&quot;font-weight: 700&quot;&gt;匹配器&lt;/span&gt;C" style="rounded=0;whiteSpace=wrap;html=1;" vertex="1" parent="71">
                    <mxGeometry x="10" y="70" width="120" height="30" as="geometry"/>
                </mxCell>
                <mxCell id="74" value="&lt;span style=&quot;font-weight: 700&quot;&gt;匹配器&lt;/span&gt;D" style="rounded=0;whiteSpace=wrap;html=1;" vertex="1" parent="71">
                    <mxGeometry x="10" y="110" width="120" height="30" as="geometry"/>
                </mxCell>
                <mxCell id="75" style="edgeStyle=none;html=1;exitX=1;exitY=0.5;exitDx=0;exitDy=0;entryX=0;entryY=0.5;entryDx=0;entryDy=0;" edge="1" parent="59" source="64" target="71">
                    <mxGeometry relative="1" as="geometry"/>
                </mxCell>
                <mxCell id="76" value="规则匹配器" style="swimlane;" vertex="1" parent="59">
                    <mxGeometry x="460" y="183.75" width="140" height="115" as="geometry"/>
                </mxCell>
                <mxCell id="77" value="&lt;span style=&quot;font-weight: 700&quot;&gt;匹配器&lt;/span&gt;B" style="rounded=0;whiteSpace=wrap;html=1;" vertex="1" parent="76">
                    <mxGeometry x="10" y="35" width="120" height="30" as="geometry"/>
                </mxCell>
                <mxCell id="78" value="&lt;span style=&quot;font-weight: 700&quot;&gt;匹配器&lt;/span&gt;C" style="rounded=0;whiteSpace=wrap;html=1;" vertex="1" parent="76">
                    <mxGeometry x="10" y="75" width="120" height="30" as="geometry"/>
                </mxCell>
                <mxCell id="79" style="edgeStyle=none;html=1;exitX=1;exitY=0.5;exitDx=0;exitDy=0;entryX=0;entryY=0.5;entryDx=0;entryDy=0;" edge="1" parent="59" source="62" target="76">
                    <mxGeometry relative="1" as="geometry"/>
                </mxCell>
                <mxCell id="80" value="规则匹配器" style="swimlane;" vertex="1" parent="59">
                    <mxGeometry x="460" y="306.25" width="140" height="70" as="geometry"/>
                </mxCell>
                <mxCell id="81" value="&lt;span style=&quot;font-weight: 700&quot;&gt;匹配器&lt;/span&gt;C" style="rounded=0;whiteSpace=wrap;html=1;" vertex="1" parent="80">
                    <mxGeometry x="10" y="30" width="120" height="30" as="geometry"/>
                </mxCell>
                <mxCell id="82" style="edgeStyle=none;html=1;exitX=1;exitY=0.5;exitDx=0;exitDy=0;entryX=0;entryY=0.5;entryDx=0;entryDy=0;" edge="1" parent="59" source="63" target="80">
                    <mxGeometry relative="1" as="geometry"/>
                </mxCell>
            </root>
        </mxGraphModel>
    </diagram>
</mxfile>